<svg width="900" height="700" viewBox="0 0 900 700" fill="none" xmlns="http://www.w3.org/2000/svg">
  <rect width="900" height="700" fill="#dbe7ee"/>
  <path d="M0 520C130 455 241 465 350 520C480 585 605 590 900 485V700H0V520Z" fill="#9bab86"/>
  <path d="M0 578C171 511 285 536 408 594C541 657 674 629 900 548V700H0V578Z" fill="#3d5131"/>
  <path d="M110 430H790" stroke="#ffffff" stroke-width="22" stroke-linecap="round" opacity=".8"/>
  <path d="M450 210L712 430H188L450 210Z" fill="#f7f8f2"/>
  <path d="M450 170L755 430H145L450 170Z" stroke="#26351f" stroke-width="16" stroke-linejoin="round"/>
  <rect x="226" y="430" width="448" height="156" fill="#f7f8f2"/>
  <rect x="226" y="430" width="448" height="156" stroke="#26351f" stroke-width="16"/>
  <rect x="280" y="470" width="70" height="116" fill="#c79a3b"/>
  <rect x="415" y="470" width="70" height="116" fill="#c79a3b"/>
  <rect x="550" y="470" width="70" height="116" fill="#c79a3b"/>
  <path d="M450 158V82" stroke="#26351f" stroke-width="14" stroke-linecap="round"/>
  <path d="M464 84L550 116L464 148V84Z" fill="#c79a3b"/>
  <path d="M64 144C132 94 205 82 282 108" stroke="#ffffff" stroke-width="16" stroke-linecap="round" opacity=".5"/>
  <path d="M628 124C692 90 756 92 820 132" stroke="#ffffff" stroke-width="16" stroke-linecap="round" opacity=".5"/>
</svg>
